<svg width="478" height="83" viewBox="0 0 478 83" fill="none" xmlns="http://www.w3.org/2000/svg">
<ellipse opacity="0.08" cx="44" cy="41.4985" rx="44" ry="41.4895" fill="#E64D2E"/>
<ellipse opacity="0.1" cx="434" cy="41.4985" rx="44" ry="41.4895" fill="#DC780B"/>
<g clip-path="url(#clip0_0_1)">
<path d="M41.9805 20.7538C39.8965 20.7538 38.2012 22.3524 38.2012 24.3174V25.5845L40.7207 26.7724H41.9805H43.2402L45.7598 25.5845V24.3174C45.7598 22.3524 44.0645 20.7538 41.9805 20.7538Z" fill="#FF6A4D"/>
<path d="M45.7598 25.5845V24.3174C45.7598 22.3524 44.0645 20.7538 41.9805 20.7538V26.7724H43.2402L45.7598 25.5845Z" fill="#E64D2E"/>
<path d="M23 56.5487C23.5838 59.2596 26.2515 61.3003 29.2988 61.3003C32.3461 61.3003 35.0979 59.2596 35.6816 56.5487L32.9448 55.3608H24.7489L23 56.5487Z" fill="#474F54"/>
<path d="M29.2988 58.9246C27.2148 58.9246 25.5195 57.326 25.5195 55.3609C25.5195 53.3958 27.2148 51.7972 29.2988 51.7972C31.3828 51.7972 33.1621 53.3958 33.1621 55.3609C33.1621 57.326 31.3828 58.9246 29.2988 58.9246Z" fill="#F2F9FF"/>
<path d="M35.6816 35.1669H28.0391L25.5195 37.5426V44.67L28.0391 45.8579H35.6816L39.4609 44.67V38.2554L38.2012 37.5426L35.6816 35.1669Z" fill="#DC780B"/>
<path d="M25.5195 32.791V37.5426H38.2012L39.4609 36.9276L38.2012 36.3547V32.791H25.5195Z" fill="#FABE2C"/>
<path d="M43.2402 56.5488H23V55.3609C23 50.7685 27.0321 47.0457 31.9023 47.0457L34.002 45.8578H45.7598V54.569L43.2402 56.5488Z" fill="#FF6A4D"/>
<path d="M23 44.6699H40.7207V47.0457H23V44.6699Z" fill="#32393F"/>
<path d="M49.5391 50.6805V55.147L48.2793 56.5488H43.2402V47.0457H40.7207C39.335 47.0457 38.2012 45.9766 38.2012 44.6699V38.7305H45.7598V42.2941C47.1455 42.2941 48.2793 43.3632 48.2793 44.6699V49.4215L49.5391 50.6805Z" fill="#575F64"/>
<path d="M49.5391 50.6805V55.147L48.2793 56.5488H43.2402V47.0457H41.9805V38.7305H45.7598V42.2941C47.1455 42.2941 48.2793 43.3632 48.2793 44.6699V49.4215L49.5391 50.6805Z" fill="#474F54"/>
<path d="M45.7598 37.5426V36.3547C45.7598 34.3896 44.0645 32.791 41.9805 32.791C39.8965 32.791 38.2012 34.3896 38.2012 36.3547V38.7305C38.2012 40.6986 39.8932 42.2941 41.9805 42.2941H52.1426C54.2298 42.2941 55.9219 40.6986 55.9219 38.7305V37.5426H45.7598Z" fill="#FF6A4D"/>
<path d="M55.9219 38.7305V37.5426H45.7598V36.3547C45.7598 34.3896 44.0645 32.791 41.9805 32.791V42.2941H52.1426C54.2298 42.2941 55.9219 40.6986 55.9219 38.7305Z" fill="#E64D2E"/>
<path d="M43.2402 26.7725H41.9805H40.7207L38.2012 27.9603V29.1482C38.2012 31.1133 39.8965 32.7911 41.9805 32.7911C44.0645 32.7911 45.7598 31.1133 45.7598 29.1482V27.9603L43.2402 26.7725Z" fill="#FFE1BA"/>
<path d="M45.7598 29.1482V27.9603L43.2402 26.7725H41.9805V32.7911C44.0645 32.7911 45.7598 31.1133 45.7598 29.1482Z" fill="#FFBFAB"/>
<path d="M41.9805 25.5845H38.2012V27.9602H41.9805H48.2793V25.5845H41.9805Z" fill="#474F54"/>
<path d="M41.9805 25.5845H48.2793V27.9602H41.9805V25.5845Z" fill="#32393F"/>
<path d="M59.3936 44.9356C59.2546 44.011 58.979 42.1897 58.4291 38.5622L53.4023 36.3547V45.8578C53.4023 47.7318 51.6903 49.4215 49.5391 49.4215H48.2793V56.5488H50.7988H63.4805L66 55.3609V52.9852C66 49.1849 63.2197 45.8718 59.3936 44.9356V44.9356Z" fill="#E64D2E"/>
<path d="M60.9609 39.9183H57.1816C55.0977 39.9183 53.4023 38.3198 53.4023 36.3547C53.4023 34.3896 55.0977 32.791 57.1816 32.791H60.9609V39.9183Z" fill="#FF6A4D"/>
<path d="M60.0798 49.4575L59.7134 50.7775L57.5843 49.7913C55.1547 50.6158 53.4023 52.7895 53.4023 55.3608C53.4023 58.6357 56.2282 61.3003 59.7012 61.3003C63.1742 61.3003 66 58.6357 66 55.3608C66 52.2083 63.3736 49.6463 60.0798 49.4575V49.4575Z" fill="#32393F"/>
<path d="M59.7012 51.7972C57.6172 51.7972 55.9219 53.3958 55.9219 55.3609C55.9219 57.326 57.6172 58.9246 59.7012 58.9246C61.7852 58.9246 63.4805 57.326 63.4805 55.3609C63.4805 53.3958 61.7852 51.7972 59.7012 51.7972Z" fill="#DFE7F4"/>
<path d="M60.9487 55.1927L60.0798 49.4576C59.9519 49.4503 59.8308 49.4215 59.7012 49.4215C58.9552 49.4215 58.249 49.566 57.5844 49.7914L58.4537 55.5291L60.9487 55.1927Z" fill="#C7CFE1"/>
</g>
<path d="M434.283 16.984V66.0131C448.512 65.871 460 54.9496 460 41.4986C460 28.0475 448.512 17.1261 434.283 16.984V16.984Z" fill="#FFBB54"/>
<path d="M434.282 16.9839C434.188 16.9829 434.094 16.9819 434 16.9819C419.641 16.9819 408 27.9586 408 41.4984C408 55.0383 419.641 66.015 434 66.015C434.094 66.015 434.188 66.014 434.282 66.013C446.2 65.8433 455.815 54.9327 455.815 41.4984C455.815 28.0642 446.2 17.1536 434.282 16.9839V16.9839Z" fill="#FFD45A"/>
<path d="M444.306 38.5585L434.133 50.8167H444.584C446.376 48.663 447.445 45.948 447.445 42.9981V41.5182C447.445 39.8904 446.032 38.5585 444.306 38.5585V38.5585Z" fill="#B74147"/>
<path d="M423.694 38.5585C421.968 38.5585 420.555 39.8904 420.555 41.5182V42.9981C420.555 45.948 421.624 48.663 423.416 50.8167L442.986 49.2066C443.827 47.3716 444.306 45.2534 444.306 42.9981V41.5185L423.694 38.5585Z" fill="#FF3C1F"/>
<path d="M442.986 49.2067L434.133 55.6747C438.376 55.6362 442.147 53.7449 444.584 50.8168C444.102 50.2376 443.567 49.698 442.986 49.2067Z" fill="#FA4087"/>
<path d="M442.987 49.2066C441.241 53.0237 437.935 55.6154 434.133 55.6746C434.089 55.6756 434.044 55.6756 434 55.6756C429.703 55.6756 425.878 53.7754 423.416 50.8167C425.878 47.8589 429.703 45.9578 434 45.9578C437.455 45.9578 440.605 47.187 442.987 49.2066Z" fill="#FA71A3"/>
<path d="M441.167 38.5585L439.598 42.9981H442.736C443.6 42.9981 444.306 42.3321 444.306 41.5182V38.5585H441.167Z" fill="#FFF7DF"/>
<path d="M441.167 38.5585V41.5182C441.167 42.3321 440.461 42.9981 439.598 42.9981H425.264C424.4 42.9981 423.694 42.3321 423.694 41.5182V38.5585H441.167Z" fill="white"/>
<path d="M434.785 59.3757H433.215C432.782 59.3757 432.431 59.0445 432.431 58.6358C432.431 58.2272 432.782 57.8959 433.215 57.8959H434.785C435.218 57.8959 435.569 58.2272 435.569 58.6358C435.569 59.0445 435.218 59.3757 434.785 59.3757Z" fill="#FFBB54"/>
<path d="M442.736 28.1993C441.873 28.1993 441.167 28.8653 441.167 29.6792V34.1188C441.167 34.9328 441.873 35.5987 442.736 35.5987C443.6 35.5987 444.306 34.9328 444.306 34.1188V29.6792C444.306 28.8653 443.6 28.1993 442.736 28.1993V28.1993Z" fill="#474867"/>
<path d="M425.264 28.2003C424.4 28.2003 423.694 28.8663 423.694 29.6802V34.1198C423.694 34.9337 424.4 35.5997 425.264 35.5997C426.127 35.5997 426.833 34.9337 426.833 34.1198V29.6802C426.833 28.8663 426.127 28.2003 425.264 28.2003Z" fill="#474867"/>
<defs>
<clipPath id="clip0_0_1">
<rect width="43" height="40.5465" fill="white" transform="translate(23 20.7538)"/>
</clipPath>
</defs>
</svg>
