<svg width="88" height="83" viewBox="0 0 88 83" fill="none" xmlns="http://www.w3.org/2000/svg">
<ellipse opacity="0.1" cx="44" cy="41.4985" rx="44" ry="41.4895" fill="#8FA632"/>
<path d="M25.9426 26.5397C25.52 25.716 25.8854 24.7253 26.759 24.3269C27.0441 24.1968 27.3477 24.1473 27.6426 24.1663C27.9207 23.5833 28.409 23.0857 29.0669 22.7855C30.5541 22.107 32.3431 22.6939 33.0627 24.0963C33.2366 24.4352 33.3315 24.7908 33.3552 25.1447C34.0191 25.1238 34.6652 25.4649 34.9732 26.0649C35.3898 26.8769 35.0296 27.8534 34.1684 28.2463C33.3864 28.6031 32.4619 28.3542 31.9864 27.6975C31.8865 27.7579 31.7822 27.8139 31.6727 27.864C30.4969 28.4003 29.133 28.1453 28.2575 27.3222C27.3905 27.6983 26.3602 27.3534 25.9426 26.5397Z" fill="url(#paint0_linear_0_1)"/>
<path d="M26.3844 23.523C27.1953 23.523 27.8527 22.9031 27.8527 22.1384C27.8527 21.3737 27.1953 20.7538 26.3844 20.7538C25.5734 20.7538 24.916 21.3737 24.916 22.1384C24.916 22.9031 25.5734 23.523 26.3844 23.523Z" fill="url(#paint1_linear_0_1)"/>
<path d="M35.1075 34.6888H31.566C31.0649 34.6888 30.6586 34.3057 30.6586 33.8332V28.5067C30.6586 28.0341 31.0649 27.651 31.566 27.651H35.1075C35.6087 27.651 36.0149 28.0341 36.0149 28.5067V33.8332C36.015 34.3057 35.6088 34.6888 35.1075 34.6888Z" fill="url(#paint2_linear_0_1)"/>
<path d="M33.9855 49.8766H23.4101V62.674H33.9855V49.8766Z" fill="url(#paint3_linear_0_1)"/>
<path d="M34.4261 52.6185H23.4338C22.9834 52.6185 22.6609 52.2085 22.7916 51.8019L23.8824 48.4139C23.9683 48.1472 24.229 47.965 24.5246 47.965H34.4262V52.6185H34.4261Z" fill="url(#paint4_linear_0_1)"/>
<path d="M65.5355 49.8766H54.9601V62.674H65.5355V49.8766Z" fill="url(#paint5_linear_0_1)"/>
<path d="M65.5354 59.321L58.4301 52.621H54.9601V62.6736H65.5354V59.321Z" fill="url(#paint6_linear_0_1)"/>
<path d="M54.5194 52.6185H65.5117C65.9621 52.6185 66.2846 52.2085 66.1539 51.8019L65.0631 48.4139C64.9772 48.1472 64.7165 47.965 64.4209 47.965H54.5194V52.6185Z" fill="url(#paint7_linear_0_1)"/>
<path d="M58.4358 36.1961V62.6734H30.5132V36.1961L44.4727 23.2906L58.4358 36.1961Z" fill="url(#paint8_linear_0_1)"/>
<path d="M30.5132 36.1961V37.713L56.9839 62.6734H58.4358V36.1961L44.4727 23.2906L30.5132 36.1961Z" fill="url(#paint9_linear_0_1)"/>
<path d="M58.4358 44.1981V62.6736H49.6203L30.5132 44.6567V44.1981H58.4358Z" fill="url(#paint10_linear_0_1)"/>
<path d="M54.1214 62.6736H40.4653L32.9585 55.5951C32.628 55.3931 32.4081 55.0425 32.4081 54.6449V48.9478C32.4081 48.3237 32.947 47.8156 33.6089 47.8156H37.9647C38.3874 47.8156 38.7592 48.023 38.9734 48.3346L38.9408 48.359L54.1214 62.6736Z" fill="url(#paint11_linear_0_1)"/>
<path d="M37.9647 55.1134H33.6093C33.3346 55.1134 33.112 54.9035 33.112 54.6445V48.9483C33.112 48.6893 33.3347 48.4794 33.6093 48.4794H37.9647C38.2394 48.4794 38.462 48.6894 38.462 48.9483V54.6445C38.4621 54.9035 38.2394 55.1134 37.9647 55.1134Z" fill="#503837"/>
<path d="M37.9647 55.7773H33.6093C32.947 55.7773 32.4081 55.2691 32.4081 54.6446V48.9484C32.4081 48.3238 32.947 47.8157 33.6093 47.8157H37.9647C38.627 47.8157 39.1659 48.3238 39.1659 48.9484V54.6446C39.166 55.2691 38.6271 55.7773 37.9647 55.7773ZM33.816 54.4496H37.7581V49.1431H33.816V54.4496Z" fill="white"/>
<path d="M58.4368 50.1654V62.6736H58.0083L50.5015 55.5951C50.17 55.3931 49.95 55.0425 49.95 54.6449V48.9478C49.95 48.3237 50.489 47.8156 51.1518 47.8156H55.5066C55.9293 47.8156 56.3011 48.023 56.5153 48.3346L56.5326 48.3473L56.521 48.3591L58.4368 50.1654Z" fill="url(#paint12_linear_0_1)"/>
<path d="M55.507 55.1134H51.1516C50.8769 55.1134 50.6543 54.9035 50.6543 54.6445V48.9483C50.6543 48.6893 50.8769 48.4794 51.1516 48.4794H55.507C55.7817 48.4794 56.0043 48.6894 56.0043 48.9483V54.6445C56.0044 54.9035 55.7817 55.1134 55.507 55.1134Z" fill="#503837"/>
<path d="M55.507 55.7773H51.1516C50.4893 55.7773 49.9504 55.2691 49.9504 54.6446V48.9484C49.9504 48.3238 50.4893 47.8157 51.1516 47.8157H55.507C56.1694 47.8157 56.7083 48.3238 56.7083 48.9484V54.6446C56.7083 55.2691 56.1694 55.7773 55.507 55.7773ZM51.3582 54.4496H55.3002V49.1431H51.3582V54.4496Z" fill="white"/>
<path d="M41.5651 62.6733V48.2895C41.5651 47.655 42.1105 47.1407 42.7833 47.1407H46.1662C46.839 47.1407 47.3845 47.655 47.3845 48.2895V62.6733H41.5651Z" fill="#816965"/>
<path d="M48.1049 62.6733H46.6638V48.6812C46.6638 48.2077 46.253 47.8203 45.7508 47.8203H43.1986C42.6943 47.8203 42.2855 48.2057 42.2855 48.6812V62.6733H40.8445V47.7826C40.8445 47.0529 41.4718 46.4614 42.2457 46.4614H46.7037C47.4775 46.4614 48.1048 47.0529 48.1048 47.7826V62.6733H48.1049V62.6733Z" fill="#503837"/>
<path d="M43.4425 53.1594C43.8054 53.1594 44.0995 52.882 44.0995 52.5399C44.0995 52.1978 43.8054 51.9204 43.4425 51.9204C43.0797 51.9204 42.7856 52.1978 42.7856 52.5399C42.7856 52.882 43.0797 53.1594 43.4425 53.1594Z" fill="white"/>
<path d="M58.4368 59.0482H30.5124V62.6731H58.4368V59.0482Z" fill="#654E48"/>
<path d="M30.2066 61.2569C30.2066 61.7572 30.1063 62.2345 29.923 62.6733H22.2836C22.1003 62.2345 22 61.7572 22 61.2569C22 60.7697 22.0952 60.304 22.2697 59.875C22.8595 58.4199 24.3536 57.3877 26.1034 57.3877C27.8532 57.3877 29.3472 58.42 29.9371 59.875C30.1114 60.3041 30.2066 60.7698 30.2066 61.2569Z" fill="url(#paint13_linear_0_1)"/>
<path d="M32.8526 61.6459C32.8526 62.0087 32.7798 62.355 32.6469 62.6734H27.1052C26.9722 62.3551 26.8995 62.0087 26.8995 61.6459C26.8995 61.2925 26.9686 60.9547 27.0951 60.6435C27.523 59.5879 28.6068 58.8391 29.8761 58.8391C31.1455 58.8391 32.2293 59.5879 32.6572 60.6435C32.7835 60.9546 32.8526 61.2925 32.8526 61.6459Z" fill="url(#paint14_linear_0_1)"/>
<path d="M66.9455 61.0222C66.9455 61.6054 66.8285 62.1619 66.6149 62.6734H57.7097C57.4962 62.162 57.3791 61.6054 57.3791 61.0222C57.3791 60.4544 57.4902 59.9116 57.6935 59.4114C58.3811 57.7153 60.1226 56.512 62.1623 56.512C64.202 56.512 65.9435 57.7153 66.6311 59.4114C66.8344 59.9116 66.9455 60.4544 66.9455 61.0222Z" fill="url(#paint15_linear_0_1)"/>
<path d="M58.4358 39.9839V54.017L40.4744 37.0795C40.1218 36.8793 39.8848 36.5161 39.8848 36.1006V32.9187C39.8848 30.5337 41.9435 28.5934 44.4728 28.5934C45.8423 28.5934 47.0734 29.1635 47.915 30.0634L58.4358 39.9839Z" fill="url(#paint16_linear_0_1)"/>
<path d="M56.3894 38.6185H32.9179C32.3582 38.6185 31.9029 39.0479 31.9029 39.5756V43.8247H32.6079V39.5756C32.6079 39.4144 32.747 39.2833 32.9179 39.2833H34.3219V43.8246H35.0269V39.2833H37.1213V43.8246H37.8263V39.2833H39.9208V43.8246H40.6258V39.2833H42.7202V43.8246H43.4252V39.2833H45.5197V43.8246H46.2247V39.2833H48.3192V43.8246H49.0242V39.2833H51.1186V43.8246H51.8236V39.2833H53.9181V43.8246H54.6231V39.2833H56.3891C56.56 39.2833 56.6991 39.4144 56.6991 39.5756V43.8247H57.4041V39.5756C57.4044 39.0479 56.9491 38.6185 56.3894 38.6185Z" fill="#654E48"/>
<path d="M59.0145 43.135V45.2664C59.0145 45.5832 58.7422 45.84 58.4063 45.84H30.5392C30.2032 45.84 29.9309 45.5832 29.9309 45.2664V43.135C29.9309 42.8182 30.2032 42.5614 30.5392 42.5614H58.4063C58.7422 42.5614 59.0145 42.8182 59.0145 43.135Z" fill="url(#paint17_linear_0_1)"/>
<path d="M63.435 38.5045L45.4056 21.4981C44.8917 21.0135 44.0584 21.0135 43.5445 21.4981L25.5105 38.5031C25.1743 38.8201 25.1743 39.334 25.5105 39.6511L26.279 40.3758C26.6153 40.6928 27.1603 40.6928 27.4965 40.3758L44.2299 24.5971C44.3652 24.4695 44.5846 24.4695 44.7199 24.5971L61.4489 40.3771C61.7851 40.6941 62.3302 40.6941 62.6664 40.3771L63.4349 39.6524C63.7712 39.3354 63.7712 38.8215 63.435 38.5045Z" fill="url(#paint18_linear_0_1)"/>
<path d="M45.4055 21.498C45.1486 21.2557 44.8119 21.1346 44.475 21.1346V24.5015C44.5637 24.5015 44.6524 24.5335 44.72 24.5972L61.449 40.3772C61.7852 40.6942 62.3303 40.6942 62.6665 40.3772L63.435 39.6525C63.7712 39.3355 63.7712 38.8215 63.435 38.5045L45.4055 21.498Z" fill="url(#paint19_linear_0_1)"/>
<path d="M47.8466 36.5545H41.099C40.833 36.5545 40.6174 36.3511 40.6174 36.1003V32.919C40.6174 30.9111 42.3436 29.2834 44.4729 29.2834C46.6023 29.2834 48.3285 30.9111 48.3285 32.919V36.1003C48.3283 36.3511 48.1126 36.5545 47.8466 36.5545Z" fill="#654E48"/>
<path d="M44.4728 28.5931C41.9432 28.5931 39.8853 30.5337 39.8853 32.9189V36.1001C39.8853 36.7313 40.4297 37.2447 41.099 37.2447H47.8466C48.5159 37.2447 49.0604 36.7313 49.0604 36.1001V32.9189C49.0603 30.5336 47.0024 28.5931 44.4728 28.5931ZM47.5709 32.5508H45.2049V30.0562C46.4516 30.3398 47.4087 31.3301 47.5709 32.5508ZM43.7406 30.0562V32.5508H41.3746C41.5368 31.3301 42.4938 30.3398 43.7406 30.0562ZM41.3493 33.9314H43.7406V35.8642H41.3493V33.9314V33.9314ZM45.2049 35.8642V33.9314H47.5962V35.8642H45.2049Z" fill="white"/>
<defs>
<linearGradient id="paint0_linear_0_1" x1="24.2445" y1="23.4131" x2="41.3063" y2="29.708" gradientUnits="userSpaceOnUse">
<stop stop-color="#E2EDF2"/>
<stop offset="1" stop-color="#9FC7E2"/>
</linearGradient>
<linearGradient id="paint1_linear_0_1" x1="25.9081" y1="21.983" x2="28.4202" y2="22.9101" gradientUnits="userSpaceOnUse">
<stop stop-color="#E2EDF2"/>
<stop offset="1" stop-color="#9FC7E2"/>
</linearGradient>
<linearGradient id="paint2_linear_0_1" x1="31.9019" y1="29.8185" x2="33.5744" y2="31.5912" gradientUnits="userSpaceOnUse">
<stop stop-color="#816965"/>
<stop offset="1" stop-color="#654E48"/>
</linearGradient>
<linearGradient id="paint3_linear_0_1" x1="28.6976" y1="51.4981" x2="28.6976" y2="62.8627" gradientUnits="userSpaceOnUse">
<stop stop-color="#FFE7A5"/>
<stop offset="0.966" stop-color="#FFBF5C"/>
</linearGradient>
<linearGradient id="paint4_linear_0_1" x1="28.5941" y1="48.5546" x2="28.5941" y2="52.6879" gradientUnits="userSpaceOnUse">
<stop stop-color="#FF5D00"/>
<stop offset="1" stop-color="#D54003"/>
</linearGradient>
<linearGradient id="paint5_linear_0_1" x1="60.2469" y1="51.4981" x2="60.2469" y2="62.8627" gradientUnits="userSpaceOnUse">
<stop stop-color="#FFE7A5"/>
<stop offset="0.966" stop-color="#FFBF5C"/>
</linearGradient>
<linearGradient id="paint6_linear_0_1" x1="60.0001" y1="60.4253" x2="49.6114" y2="50.6072" gradientUnits="userSpaceOnUse">
<stop stop-color="#FF5D00" stop-opacity="0"/>
<stop offset="1" stop-color="#D54003"/>
</linearGradient>
<linearGradient id="paint7_linear_0_1" x1="60.3505" y1="48.5546" x2="60.3505" y2="52.6879" gradientUnits="userSpaceOnUse">
<stop stop-color="#FF5D00"/>
<stop offset="1" stop-color="#D54003"/>
</linearGradient>
<linearGradient id="paint8_linear_0_1" x1="44.474" y1="43.2554" x2="44.474" y2="71.1341" gradientUnits="userSpaceOnUse">
<stop stop-color="#FFE7A5"/>
<stop offset="0.966" stop-color="#FFBF5C"/>
<stop offset="1" stop-color="#DB9E36"/>
</linearGradient>
<linearGradient id="paint9_linear_0_1" x1="41.4565" y1="34.1097" x2="33.8478" y2="26.0407" gradientUnits="userSpaceOnUse">
<stop stop-color="#FF5D00" stop-opacity="0"/>
<stop offset="1" stop-color="#D54003"/>
</linearGradient>
<linearGradient id="paint10_linear_0_1" x1="45.5251" y1="50.5798" x2="42.705" y2="32.0159" gradientUnits="userSpaceOnUse">
<stop stop-color="#FF5D00" stop-opacity="0"/>
<stop offset="1" stop-color="#D54003"/>
</linearGradient>
<linearGradient id="paint11_linear_0_1" x1="41.2266" y1="56.9259" x2="29.369" y2="44.3508" gradientUnits="userSpaceOnUse">
<stop stop-color="#FF5D00" stop-opacity="0"/>
<stop offset="1" stop-color="#D54003"/>
</linearGradient>
<linearGradient id="paint12_linear_0_1" x1="56.6992" y1="54.9746" x2="49.1071" y2="46.9232" gradientUnits="userSpaceOnUse">
<stop stop-color="#FF5D00" stop-opacity="0"/>
<stop offset="1" stop-color="#D54003"/>
</linearGradient>
<linearGradient id="paint13_linear_0_1" x1="23.7892" y1="58.8482" x2="28.5555" y2="63.9024" gradientUnits="userSpaceOnUse">
<stop stop-color="#9EB644"/>
<stop offset="1" stop-color="#738611"/>
</linearGradient>
<linearGradient id="paint14_linear_0_1" x1="28.1972" y1="59.8983" x2="31.6547" y2="63.5651" gradientUnits="userSpaceOnUse">
<stop stop-color="#9EB644"/>
<stop offset="1" stop-color="#738611"/>
</linearGradient>
<linearGradient id="paint15_linear_0_1" x1="59.4642" y1="58.2142" x2="65.0197" y2="64.1067" gradientUnits="userSpaceOnUse">
<stop stop-color="#9EB644"/>
<stop offset="1" stop-color="#738611"/>
</linearGradient>
<linearGradient id="paint16_linear_0_1" x1="50.8878" y1="39.9018" x2="38.7324" y2="27.0108" gradientUnits="userSpaceOnUse">
<stop stop-color="#FF5D00" stop-opacity="0"/>
<stop offset="1" stop-color="#D54003"/>
</linearGradient>
<linearGradient id="paint17_linear_0_1" x1="44.4723" y1="42.9107" x2="44.4723" y2="47.26" gradientUnits="userSpaceOnUse">
<stop stop-color="#FF5D00"/>
<stop offset="1" stop-color="#D54003"/>
</linearGradient>
<linearGradient id="paint18_linear_0_1" x1="44.4723" y1="32.638" x2="44.4723" y2="47.4038" gradientUnits="userSpaceOnUse">
<stop stop-color="#FF5D00"/>
<stop offset="1" stop-color="#D54003"/>
</linearGradient>
<linearGradient id="paint19_linear_0_1" x1="57.9408" y1="35.2596" x2="49.0314" y2="25.8113" gradientUnits="userSpaceOnUse">
<stop stop-color="#FF5D00" stop-opacity="0"/>
<stop offset="1" stop-color="#D54003"/>
</linearGradient>
</defs>
</svg>
